<mxfile host="65bd71144e">
    <diagram id="nI8BfK6OZB9x8AAH9BsX" name="Page-1">
        <mxGraphModel dx="2093" dy="970" grid="1" gridSize="10" guides="1" tooltips="1" connect="1" arrows="1" fold="1" page="1" pageScale="1" pageWidth="850" pageHeight="1100" math="0" shadow="0">
            <root>
                <mxCell id="0"/>
                <mxCell id="387" value="bg" style="locked=1;" parent="0"/>
                <mxCell id="388" value="" style="whiteSpace=wrap;html=1;fontColor=#FFFFFF;" vertex="1" parent="387">
                    <mxGeometry x="-460" y="10" width="1190" height="780" as="geometry"/>
                </mxCell>
                <mxCell id="1" value="main" style="locked=1;" parent="0"/>
                <mxCell id="2" value="" style="shape=cylinder3;whiteSpace=wrap;html=1;boundedLbl=1;backgroundOutline=1;size=15;fillColor=#6a00ff;fontColor=#ffffff;strokeColor=#3700CC;rounded=1;labelBackgroundColor=default;" parent="1" vertex="1">
                    <mxGeometry x="120" y="190" width="110" height="140" as="geometry"/>
                </mxCell>
                <mxCell id="3" value="Client" style="ellipse;whiteSpace=wrap;html=1;aspect=fixed;fontSize=17;rounded=1;labelBackgroundColor=default;" parent="1" vertex="1">
                    <mxGeometry x="610" y="210" width="80" height="80" as="geometry"/>
                </mxCell>
                <mxCell id="5" value="&lt;font style=&quot;font-size: 14px;&quot;&gt;Read Port from file&lt;/font&gt;" style="whiteSpace=wrap;html=1;aspect=fixed;fontSize=17;rounded=1;labelBackgroundColor=default;" parent="1" vertex="1">
                    <mxGeometry x="610" y="80" width="80" height="80" as="geometry"/>
                </mxCell>
                <mxCell id="7" value="&lt;font style=&quot;font-size: 10px;&quot;&gt;Attempt making socket with Port given&lt;/font&gt;" style="rounded=1;whiteSpace=wrap;html=1;fontSize=17;labelBackgroundColor=default;" parent="1" vertex="1">
                    <mxGeometry x="390" y="90" width="120" height="60" as="geometry"/>
                </mxCell>
                <mxCell id="9" value="&lt;font style=&quot;font-size: 12px;&quot;&gt;Attempts to make a connection&lt;/font&gt;" style="text;html=1;align=center;verticalAlign=middle;resizable=0;points=[];autosize=1;strokeColor=none;fillColor=none;fontSize=12;rotation=-28;rounded=1;labelBackgroundColor=default;" parent="1" vertex="1">
                    <mxGeometry x="210" y="130" width="190" height="30" as="geometry"/>
                </mxCell>
                <mxCell id="10" value="" style="endArrow=classic;startArrow=classic;html=1;fontSize=17;entryX=0.5;entryY=1;entryDx=0;entryDy=0;entryPerimeter=0;exitX=0.5;exitY=0;exitDx=0;exitDy=0;fillColor=#0050ef;strokeColor=#0024EB;rounded=1;labelBackgroundColor=default;" parent="1" source="11" target="2" edge="1">
                    <mxGeometry width="50" height="50" relative="1" as="geometry">
                        <mxPoint x="175" y="480" as="sourcePoint"/>
                        <mxPoint x="180" y="330" as="targetPoint"/>
                    </mxGeometry>
                </mxCell>
                <mxCell id="53" value="" style="edgeStyle=none;html=1;fontSize=12;rounded=1;labelBackgroundColor=default;" parent="1" source="11" target="19" edge="1">
                    <mxGeometry relative="1" as="geometry"/>
                </mxCell>
                <mxCell id="11" value="" style="ellipse;whiteSpace=wrap;html=1;aspect=fixed;fontSize=17;opacity=90;fillColor=#FF0000;strokeColor=#d51c15;rounded=1;labelBackgroundColor=default;" parent="1" vertex="1">
                    <mxGeometry x="115" y="480" width="120" height="120" as="geometry"/>
                </mxCell>
                <mxCell id="12" value="&lt;font style=&quot;font-size: 9px;&quot;&gt;Client and server connected&lt;/font&gt;" style="text;html=1;align=center;verticalAlign=middle;resizable=0;points=[];autosize=1;strokeColor=none;fillColor=none;fontSize=9;opacity=90;rotation=-90;rounded=1;labelBackgroundColor=default;" parent="1" vertex="1">
                    <mxGeometry x="120" y="400" width="140" height="20" as="geometry"/>
                </mxCell>
                <mxCell id="14" value="When attempting to send msg" style="text;html=1;align=center;verticalAlign=middle;resizable=0;points=[];autosize=1;strokeColor=none;fillColor=none;fontSize=9;rounded=1;labelBackgroundColor=default;" parent="1" vertex="1">
                    <mxGeometry x="370" y="550" width="140" height="20" as="geometry"/>
                </mxCell>
                <mxCell id="15" value="Encrypts message with Iv and Key before sending it" style="rounded=1;whiteSpace=wrap;html=1;fontSize=9;opacity=90;labelBackgroundColor=default;" parent="1" vertex="1">
                    <mxGeometry x="530" y="505" width="90" height="70" as="geometry"/>
                </mxCell>
                <mxCell id="18" value="Sends encrypted msg" style="text;html=1;align=center;verticalAlign=middle;resizable=0;points=[];autosize=1;strokeColor=none;fillColor=none;fontSize=9;rotation=20;rounded=1;labelBackgroundColor=default;" parent="1" vertex="1">
                    <mxGeometry x="250" y="320" width="110" height="20" as="geometry"/>
                </mxCell>
                <mxCell id="19" value="&lt;span style=&quot;font-size: 10px;&quot;&gt;Asks client for username&lt;/span&gt;" style="rounded=1;whiteSpace=wrap;html=1;fontSize=9;opacity=90;labelBackgroundColor=default;" parent="1" vertex="1">
                    <mxGeometry x="250" y="500" width="100" height="80" as="geometry"/>
                </mxCell>
                <mxCell id="27" value="" style="endArrow=none;dashed=1;html=1;dashPattern=1 3;strokeWidth=2;fontSize=13;entryX=0;entryY=0.5;entryDx=0;entryDy=0;entryPerimeter=0;exitX=1;exitY=0.5;exitDx=0;exitDy=0;fillColor=#60a917;strokeColor=#2D7600;rounded=1;labelBackgroundColor=default;" parent="1" source="28" target="2" edge="1">
                    <mxGeometry width="50" height="50" relative="1" as="geometry">
                        <mxPoint x="50" y="260" as="sourcePoint"/>
                        <mxPoint x="170" y="350" as="targetPoint"/>
                    </mxGeometry>
                </mxCell>
                <mxCell id="28" value="Seperates the message by delimeters" style="rounded=1;whiteSpace=wrap;html=1;fontSize=13;labelBackgroundColor=default;" parent="1" vertex="1">
                    <mxGeometry x="-60" y="280" width="120" height="70" as="geometry"/>
                </mxCell>
                <mxCell id="30" value="Generates new Key and Iv" style="rounded=1;whiteSpace=wrap;html=1;fontSize=11;labelBackgroundColor=default;" parent="1" vertex="1">
                    <mxGeometry x="240" y="620" width="120" height="60" as="geometry"/>
                </mxCell>
                <mxCell id="35" value="Converts Key and Iv to Hex format" style="rounded=1;whiteSpace=wrap;html=1;fontSize=11;labelBackgroundColor=default;" parent="1" vertex="1">
                    <mxGeometry x="250" y="710" width="100" height="60" as="geometry"/>
                </mxCell>
                <mxCell id="43" value="&lt;font style=&quot;font-size: 12px;&quot;&gt;Combines Encrypted message, Hex iv, and Hex key in one message seperated by delimeter&lt;/font&gt;" style="rounded=1;whiteSpace=wrap;html=1;fontSize=12;labelBackgroundColor=default;" parent="1" vertex="1">
                    <mxGeometry x="505" y="380" width="140" height="80" as="geometry"/>
                </mxCell>
                <mxCell id="45" value="" style="endArrow=none;dashed=1;html=1;dashPattern=1 3;strokeWidth=2;fontSize=12;entryX=0.5;entryY=1;entryDx=0;entryDy=0;exitX=1;exitY=0.5;exitDx=0;exitDy=0;rounded=1;labelBackgroundColor=default;" parent="1" source="35" target="15" edge="1">
                    <mxGeometry width="50" height="50" relative="1" as="geometry">
                        <mxPoint x="440" y="690" as="sourcePoint"/>
                        <mxPoint x="490" y="640" as="targetPoint"/>
                    </mxGeometry>
                </mxCell>
                <mxCell id="46" value="" style="endArrow=none;dashed=1;html=1;dashPattern=1 3;strokeWidth=2;fontSize=12;entryX=0.5;entryY=1;entryDx=0;entryDy=0;exitX=0.5;exitY=0;exitDx=0;exitDy=0;rounded=1;labelBackgroundColor=default;" parent="1" source="15" target="43" edge="1">
                    <mxGeometry width="50" height="50" relative="1" as="geometry">
                        <mxPoint x="480" y="520" as="sourcePoint"/>
                        <mxPoint x="530" y="470" as="targetPoint"/>
                    </mxGeometry>
                </mxCell>
                <mxCell id="49" value="" style="endArrow=none;dashed=1;html=1;dashPattern=1 3;strokeWidth=2;fontSize=12;entryX=0.5;entryY=1;entryDx=0;entryDy=0;exitX=0.5;exitY=0;exitDx=0;exitDy=0;rounded=1;labelBackgroundColor=default;" parent="1" source="3" target="5" edge="1">
                    <mxGeometry width="50" height="50" relative="1" as="geometry">
                        <mxPoint x="470" y="380" as="sourcePoint"/>
                        <mxPoint x="520" y="330" as="targetPoint"/>
                    </mxGeometry>
                </mxCell>
                <mxCell id="51" value="" style="endArrow=none;dashed=1;html=1;fontSize=12;exitX=1;exitY=0;exitDx=0;exitDy=15;exitPerimeter=0;entryX=0;entryY=0.5;entryDx=0;entryDy=0;rounded=1;labelBackgroundColor=default;" parent="1" source="2" target="7" edge="1">
                    <mxGeometry width="50" height="50" relative="1" as="geometry">
                        <mxPoint x="300" y="180" as="sourcePoint"/>
                        <mxPoint x="350" y="130" as="targetPoint"/>
                    </mxGeometry>
                </mxCell>
                <mxCell id="52" value="" style="endArrow=none;dashed=1;html=1;fontSize=12;entryX=0;entryY=0.5;entryDx=0;entryDy=0;exitX=1;exitY=0.5;exitDx=0;exitDy=0;rounded=1;labelBackgroundColor=default;" parent="1" source="7" target="5" edge="1">
                    <mxGeometry width="50" height="50" relative="1" as="geometry">
                        <mxPoint x="490" y="240" as="sourcePoint"/>
                        <mxPoint x="540" y="190" as="targetPoint"/>
                    </mxGeometry>
                </mxCell>
                <mxCell id="54" value="" style="endArrow=none;dashed=1;html=1;dashPattern=1 3;strokeWidth=2;fontSize=9;entryX=0.5;entryY=1;entryDx=0;entryDy=0;exitX=0.5;exitY=0;exitDx=0;exitDy=0;rounded=1;labelBackgroundColor=default;" parent="1" source="30" target="19" edge="1">
                    <mxGeometry width="50" height="50" relative="1" as="geometry">
                        <mxPoint x="170" y="660" as="sourcePoint"/>
                        <mxPoint x="220" y="610" as="targetPoint"/>
                    </mxGeometry>
                </mxCell>
                <mxCell id="56" value="" style="endArrow=none;dashed=1;html=1;dashPattern=1 3;strokeWidth=2;fontSize=9;entryX=0.5;entryY=1;entryDx=0;entryDy=0;exitX=0.5;exitY=0;exitDx=0;exitDy=0;rounded=1;labelBackgroundColor=default;" parent="1" source="35" target="30" edge="1">
                    <mxGeometry width="50" height="50" relative="1" as="geometry">
                        <mxPoint x="170" y="770" as="sourcePoint"/>
                        <mxPoint x="220" y="720" as="targetPoint"/>
                    </mxGeometry>
                </mxCell>
                <mxCell id="58" value="" style="endArrow=none;dashed=1;html=1;dashPattern=1 3;strokeWidth=2;fontSize=9;exitX=0.5;exitY=0;exitDx=0;exitDy=0;entryX=0.855;entryY=1;entryDx=0;entryDy=-4.35;entryPerimeter=0;fillColor=#1ba1e2;strokeColor=#006EAF;rounded=1;labelBackgroundColor=default;" parent="1" source="19" target="2" edge="1">
                    <mxGeometry width="50" height="50" relative="1" as="geometry">
                        <mxPoint x="300" y="470" as="sourcePoint"/>
                        <mxPoint x="350" y="420" as="targetPoint"/>
                    </mxGeometry>
                </mxCell>
                <mxCell id="59" value="Sends username to server" style="text;html=1;align=center;verticalAlign=middle;resizable=0;points=[];autosize=1;strokeColor=none;fillColor=none;fontSize=9;rotation=63.8;rounded=1;labelBackgroundColor=default;" parent="1" vertex="1">
                    <mxGeometry x="210" y="420" width="130" height="20" as="geometry"/>
                </mxCell>
                <mxCell id="60" value="" style="endArrow=none;dashed=1;html=1;dashPattern=1 3;strokeWidth=2;fontSize=9;exitX=0;exitY=0;exitDx=0;exitDy=42.5;exitPerimeter=0;fillColor=#1ba1e2;strokeColor=#006EAF;entryX=1;entryY=0.5;entryDx=0;entryDy=0;rounded=1;labelBackgroundColor=default;" parent="1" source="2" target="61" edge="1">
                    <mxGeometry width="50" height="50" relative="1" as="geometry">
                        <mxPoint x="70" y="190" as="sourcePoint"/>
                        <mxPoint x="30" y="170" as="targetPoint"/>
                    </mxGeometry>
                </mxCell>
                <mxCell id="61" value="Checks if username is okay to use based on conditons in code" style="rounded=1;whiteSpace=wrap;html=1;fontSize=9;labelBackgroundColor=default;" parent="1" vertex="1">
                    <mxGeometry x="-10" y="125" width="90" height="65" as="geometry"/>
                </mxCell>
                <mxCell id="62" value="&lt;font style=&quot;font-size: 11px;&quot;&gt;Sends join msg to all connected users&lt;/font&gt;" style="whiteSpace=wrap;html=1;fontSize=9;rounded=1;labelBackgroundColor=default;" parent="1" vertex="1">
                    <mxGeometry x="-280" y="140" width="90" height="85" as="geometry"/>
                </mxCell>
                <mxCell id="64" value="" style="endArrow=none;dashed=1;html=1;dashPattern=1 3;strokeWidth=2;fontSize=9;entryX=0;entryY=1;entryDx=0;entryDy=0;exitX=1;exitY=0.5;exitDx=0;exitDy=0;fillColor=#1ba1e2;strokeColor=#006EAF;rounded=1;labelBackgroundColor=default;" parent="1" source="62" target="107" edge="1">
                    <mxGeometry width="50" height="50" relative="1" as="geometry">
                        <mxPoint x="-170" y="290" as="sourcePoint"/>
                        <mxPoint x="-120" y="240" as="targetPoint"/>
                    </mxGeometry>
                </mxCell>
                <mxCell id="65" value="" style="endArrow=none;dashed=1;html=1;dashPattern=1 3;strokeWidth=2;fontSize=11;entryX=0.5;entryY=1;entryDx=0;entryDy=0;exitX=0.45;exitY=-0.043;exitDx=0;exitDy=0;exitPerimeter=0;fillColor=#1ba1e2;strokeColor=#006EAF;rounded=1;labelBackgroundColor=default;" parent="1" source="28" target="62" edge="1">
                    <mxGeometry width="50" height="50" relative="1" as="geometry">
                        <mxPoint x="-180" y="280" as="sourcePoint"/>
                        <mxPoint x="-130" y="230" as="targetPoint"/>
                    </mxGeometry>
                </mxCell>
                <mxCell id="66" value="If success then" style="text;html=1;align=center;verticalAlign=top;resizable=0;points=[];autosize=1;strokeColor=none;fillColor=none;fontSize=10;rotation=10;rounded=1;labelBackgroundColor=default;" parent="1" vertex="1">
                    <mxGeometry x="-130" y="235" width="90" height="30" as="geometry"/>
                </mxCell>
                <mxCell id="68" value="Decodes Iv and Key to binary format and decrypts message using decoded keys" style="rounded=1;whiteSpace=wrap;html=1;fontSize=11;labelBackgroundColor=default;" vertex="1" parent="1">
                    <mxGeometry x="-240" y="270" width="110" height="90" as="geometry"/>
                </mxCell>
                <mxCell id="69" value="" style="endArrow=none;dashed=1;html=1;dashPattern=1 3;strokeWidth=2;fontSize=11;entryX=0;entryY=0.5;entryDx=0;entryDy=0;exitX=1;exitY=0.5;exitDx=0;exitDy=0;fillColor=#60a917;strokeColor=#2D7600;rounded=1;labelBackgroundColor=default;" edge="1" parent="1" source="68" target="28">
                    <mxGeometry width="50" height="50" relative="1" as="geometry">
                        <mxPoint x="-210" y="490" as="sourcePoint"/>
                        <mxPoint x="-160" y="440" as="targetPoint"/>
                    </mxGeometry>
                </mxCell>
                <mxCell id="70" value="" style="endArrow=none;dashed=1;html=1;dashPattern=1 3;strokeWidth=2;fontSize=11;entryX=0;entryY=0.5;entryDx=0;entryDy=0;exitX=1;exitY=0.5;exitDx=0;exitDy=0;fillColor=#60a917;strokeColor=#2D7600;rounded=1;labelBackgroundColor=default;" edge="1" parent="1" source="71" target="68">
                    <mxGeometry width="50" height="50" relative="1" as="geometry">
                        <mxPoint x="-350" y="380" as="sourcePoint"/>
                        <mxPoint x="-360" y="390" as="targetPoint"/>
                    </mxGeometry>
                </mxCell>
                <mxCell id="71" value="Attaches time send to message" style="rounded=1;whiteSpace=wrap;html=1;fontSize=11;labelBackgroundColor=default;" vertex="1" parent="1">
                    <mxGeometry x="-410" y="290" width="120" height="80" as="geometry"/>
                </mxCell>
                <mxCell id="73" value="Broadcasts decrypted message to all users connected" style="rounded=1;whiteSpace=wrap;html=1;fontSize=11;labelBackgroundColor=default;" vertex="1" parent="1">
                    <mxGeometry x="-410" y="415" width="120" height="60" as="geometry"/>
                </mxCell>
                <mxCell id="74" value="" style="endArrow=none;dashed=1;html=1;dashPattern=1 3;strokeWidth=2;fontSize=11;entryX=0.5;entryY=1;entryDx=0;entryDy=0;exitX=0.5;exitY=0;exitDx=0;exitDy=0;fillColor=#60a917;strokeColor=#2D7600;rounded=1;labelBackgroundColor=default;" edge="1" parent="1" source="73" target="71">
                    <mxGeometry width="50" height="50" relative="1" as="geometry">
                        <mxPoint x="-290" y="505" as="sourcePoint"/>
                        <mxPoint x="-240" y="455" as="targetPoint"/>
                    </mxGeometry>
                </mxCell>
                <mxCell id="78" value="" style="endArrow=none;dashed=1;html=1;dashPattern=1 3;strokeWidth=2;fontSize=11;exitX=-0.033;exitY=0.792;exitDx=0;exitDy=0;entryX=1;entryY=0.5;entryDx=0;entryDy=0;exitPerimeter=0;rounded=1;labelBackgroundColor=default;" edge="1" parent="1" source="107" target="81">
                    <mxGeometry width="50" height="50" relative="1" as="geometry">
                        <mxPoint x="30" y="100" as="sourcePoint"/>
                        <mxPoint x="-10" y="70" as="targetPoint"/>
                    </mxGeometry>
                </mxCell>
                <mxCell id="81" value="Delete client socket and username and disconnect client" style="rounded=1;whiteSpace=wrap;html=1;fontSize=11;labelBackgroundColor=default;" vertex="1" parent="1">
                    <mxGeometry x="-260" y="30" width="120" height="60" as="geometry"/>
                </mxCell>
                <mxCell id="84" value="Send exit message to all users connected" style="rounded=1;whiteSpace=wrap;html=1;fontSize=11;labelBackgroundColor=default;" vertex="1" parent="1">
                    <mxGeometry x="-430" y="30" width="120" height="60" as="geometry"/>
                </mxCell>
                <mxCell id="95" value="If &quot;quit&quot; or Ctrl+c" style="text;html=1;align=center;verticalAlign=middle;resizable=0;points=[];autosize=1;strokeColor=none;fillColor=none;fontSize=11;rotation=46;fontFamily=Tahoma;rounded=1;labelBackgroundColor=default;" vertex="1" parent="1">
                    <mxGeometry x="335" y="460" width="110" height="30" as="geometry"/>
                </mxCell>
                <mxCell id="97" value="" style="endArrow=none;dashed=1;html=1;dashPattern=1 3;strokeWidth=2;fontSize=11;entryX=0;entryY=0.5;entryDx=0;entryDy=0;exitX=1;exitY=0.5;exitDx=0;exitDy=0;fillColor=#d80073;strokeColor=#A50040;rounded=1;labelBackgroundColor=default;" edge="1" parent="1" source="84" target="81">
                    <mxGeometry width="50" height="50" relative="1" as="geometry">
                        <mxPoint x="-300" y="260" as="sourcePoint"/>
                        <mxPoint x="-250" y="210" as="targetPoint"/>
                    </mxGeometry>
                </mxCell>
                <mxCell id="99" value="Client terminal" style="ellipse;whiteSpace=wrap;html=1;aspect=fixed;fontSize=11;rounded=1;labelBackgroundColor=default;" vertex="1" parent="1">
                    <mxGeometry x="-80" y="450" width="80" height="80" as="geometry"/>
                </mxCell>
                <mxCell id="100" value="" style="endArrow=classic;html=1;fontSize=11;entryX=0;entryY=0.5;entryDx=0;entryDy=0;exitX=1;exitY=0.5;exitDx=0;exitDy=0;rounded=1;labelBackgroundColor=default;" edge="1" parent="1" source="19" target="15">
                    <mxGeometry relative="1" as="geometry">
                        <mxPoint x="400" y="580" as="sourcePoint"/>
                        <mxPoint x="500" y="580" as="targetPoint"/>
                    </mxGeometry>
                </mxCell>
                <mxCell id="101" value="" style="shape=message;html=1;outlineConnect=0;fontSize=11;rounded=1;labelBackgroundColor=default;" vertex="1" parent="100">
                    <mxGeometry width="20" height="14" relative="1" as="geometry">
                        <mxPoint x="-10" y="-7" as="offset"/>
                    </mxGeometry>
                </mxCell>
                <mxCell id="102" value="" style="endArrow=classic;html=1;fontSize=11;exitX=0;exitY=0.5;exitDx=0;exitDy=0;entryX=1;entryY=1;entryDx=0;entryDy=-15;entryPerimeter=0;fillColor=#60a917;strokeColor=#2D7600;rounded=1;labelBackgroundColor=default;" edge="1" parent="1" source="43" target="2">
                    <mxGeometry relative="1" as="geometry">
                        <mxPoint x="390" y="409.5" as="sourcePoint"/>
                        <mxPoint x="490" y="409.5" as="targetPoint"/>
                    </mxGeometry>
                </mxCell>
                <mxCell id="103" value="" style="shape=message;html=1;outlineConnect=0;fontSize=11;fillColor=#60a917;fontColor=#ffffff;strokeColor=#2D7600;rounded=1;labelBackgroundColor=default;" vertex="1" parent="102">
                    <mxGeometry width="20" height="14" relative="1" as="geometry">
                        <mxPoint x="-10" y="-7" as="offset"/>
                    </mxGeometry>
                </mxCell>
                <mxCell id="104" value="" style="endArrow=classic;html=1;fontSize=11;entryX=0;entryY=0.5;entryDx=0;entryDy=0;exitX=1;exitY=0.5;exitDx=0;exitDy=0;fillColor=#60a917;strokeColor=#2D7600;rounded=1;labelBackgroundColor=default;" edge="1" parent="1" source="73" target="99">
                    <mxGeometry relative="1" as="geometry">
                        <mxPoint x="-220" y="440" as="sourcePoint"/>
                        <mxPoint x="-120" y="440" as="targetPoint"/>
                    </mxGeometry>
                </mxCell>
                <mxCell id="105" value="" style="shape=message;html=1;outlineConnect=0;fontSize=11;rounded=1;labelBackgroundColor=default;" vertex="1" parent="104">
                    <mxGeometry width="20" height="14" relative="1" as="geometry">
                        <mxPoint x="-10" y="-7" as="offset"/>
                    </mxGeometry>
                </mxCell>
                <mxCell id="106" value="" style="shape=actor;whiteSpace=wrap;html=1;fontSize=11;strokeColor=none;fillColor=#f9f7ed;rounded=1;labelBackgroundColor=default;" vertex="1" parent="1">
                    <mxGeometry x="157.5" y="517.5" width="35" height="45" as="geometry"/>
                </mxCell>
                <mxCell id="107" value="" style="whiteSpace=wrap;html=1;shape=partialRectangle;top=0;left=0;bottom=1;right=0;points=[[0,1],[1,1]];fillColor=none;align=center;verticalAlign=bottom;routingCenterY=0.5;snapToPoint=1;recursiveResize=0;autosize=1;treeFolding=1;treeMoving=1;newEdgeStyle={&quot;edgeStyle&quot;:&quot;entityRelationEdgeStyle&quot;,&quot;startArrow&quot;:&quot;none&quot;,&quot;endArrow&quot;:&quot;none&quot;,&quot;segment&quot;:10,&quot;curved&quot;:1,&quot;sourcePerimeterSpacing&quot;:0,&quot;targetPerimeterSpacing&quot;:0};fontSize=11;rounded=1;labelBackgroundColor=default;" vertex="1" parent="1">
                    <mxGeometry x="-95" y="105" width="50" height="40" as="geometry"/>
                </mxCell>
                <mxCell id="108" value="" style="edgeStyle=entityRelationEdgeStyle;startArrow=none;endArrow=none;segment=10;curved=1;sourcePerimeterSpacing=0;targetPerimeterSpacing=0;fontSize=11;exitX=0;exitY=0.5;exitDx=0;exitDy=0;rounded=1;labelBackgroundColor=default;" edge="1" target="107" parent="1" source="61">
                    <mxGeometry relative="1" as="geometry">
                        <mxPoint x="-150" y="150" as="sourcePoint"/>
                    </mxGeometry>
                </mxCell>
                <mxCell id="112" value="" style="endArrow=none;dashed=1;html=1;dashPattern=1 3;strokeWidth=2;fontSize=11;entryX=1;entryY=0.5;entryDx=0;entryDy=0;fillColor=#d80073;strokeColor=#A50040;exitX=0.264;exitY=-0.005;exitDx=0;exitDy=0;exitPerimeter=0;rounded=1;labelBackgroundColor=default;" edge="1" parent="1" source="2" target="81">
                    <mxGeometry width="50" height="50" relative="1" as="geometry">
                        <mxPoint x="160" y="190" as="sourcePoint"/>
                        <mxPoint x="170" y="90" as="targetPoint"/>
                        <Array as="points">
                            <mxPoint x="80" y="80"/>
                        </Array>
                    </mxGeometry>
                </mxCell>
                <mxCell id="113" value="" style="endArrow=classic;html=1;fontSize=11;exitX=0.15;exitY=0.05;exitDx=0;exitDy=0;exitPerimeter=0;entryX=0.954;entryY=0.936;entryDx=0;entryDy=0;entryPerimeter=0;fillColor=#d80073;strokeColor=#A50040;rounded=1;labelBackgroundColor=default;" edge="1" parent="1" source="101" target="2">
                    <mxGeometry relative="1" as="geometry">
                        <mxPoint x="360" y="420" as="sourcePoint"/>
                        <mxPoint x="460" y="420" as="targetPoint"/>
                    </mxGeometry>
                </mxCell>
                <mxCell id="114" value="" style="shape=message;html=1;outlineConnect=0;fontSize=11;fillColor=#d80073;fontColor=#ffffff;strokeColor=#A50040;rounded=1;labelBackgroundColor=default;" vertex="1" parent="113">
                    <mxGeometry width="20" height="14" relative="1" as="geometry">
                        <mxPoint x="-10" y="-7" as="offset"/>
                    </mxGeometry>
                </mxCell>
                <mxCell id="386" value="&lt;font color=&quot;#ffffff&quot;&gt;Server&lt;/font&gt;" style="text;strokeColor=none;align=center;fillColor=none;html=1;verticalAlign=middle;whiteSpace=wrap;rounded=0;labelBackgroundColor=#6A00FF;fontColor=none;" vertex="1" parent="1">
                    <mxGeometry x="137.5" y="250" width="75" height="40" as="geometry"/>
                </mxCell>
            </root>
        </mxGraphModel>
    </diagram>
</mxfile>